{"title":"A.C.O.D. Adult Children Of Divorce 2013 WEBrip Xvid Ac3-MiLLENiU","uid":9416216,"size":1406388250,"categoryP":"video","categoryS":"movies","magnet":"?xt=urn:btih:9cec4cdacc19d7819bb50f43d77b0c51a42b25a3&amp;dn=A.C.O.D.+Adult+Children+Of+Divorce+2013+WEBrip+Xvid+Ac3-MiLLENiU&amp;tr=udp%3A%2F%2Ftracker.openbittorrent.com%3A80&amp;tr=udp%3A%2F%2Fopen.demonii.com%3A1337&amp;tr=udp%3A%2F%2Ftracker.coppersurfer.tk%3A6969&amp;tr=udp%3A%2F%2Fexodus.desync.com%3A6969","seeders":7,"leechers":3,"uploader":"xxxlavalxxx","files":-1,"time":1388449585,"description":" &lt;a href=&quot;http://www.imdb.com/title/tt1311060/&quot; rel=&quot;nofollow&quot; target=&quot;_NEW&quot;&gt;http://www.imdb.com/title/tt1311060/&lt;/a&gt;\n\n\nA grown man caught in the crossfire of his parents 15-year divorce discovers he was unknowingly part of a study on divorced children and is enlisted in a follow-up years later, which wreaks new havoc on his family.\n\nDirector: Stu Zicherman\nWriters: Ben Karlin (screenplay), Stu Zicherman (screenplay)\nStars: Adam Scott, Richard Jenkins, Catherine O'Hara \nGenres: Comedy\nCountry: USA\nLanguage: English\n\n\nGeneral &lt;a href=&quot;\nhttp://www.imdb.com/title/tt1311060/&quot; rel=&quot;nofollow&quot; target=&quot;_NEW&quot;&gt;\nhttp://www.imdb.com/title/tt1311060/&lt;/a&gt;\nComplete name                            : A.C.O.D. Adult Children Of Divorce 2013 WEBrip Xvid Ac3-MiLLENiUM.avi\nSource                                   : WEBDL 720p millenium\nFormat                                   : AVI\nFormat/Info                              : Audio Video Interleave\nFile size                                : 1.29 GiB\nDuration                                 : 1h 28mn\nOverall bit rate                         : 2 087 Kbps\nWriting application                      : VirtualDubMod 1.5.10.2 (build 2540/release)\nWriting library                          : VirtualDubMod build 2540/release\n\nVideo\nID                                       : 0\nFormat                                   : MPEG-4 Visual\nFormat profile                           : Advanced Simple@L5\nFormat settings, BVOP                    : 2\nFormat settings, QPel                    : No\nFormat settings, GMC                     : No warppoints\nFormat settings, Matrix                  : Default (H.263)\nMuxing mode                              : Packed bitstream\nCodec ID                                 : XVID\nCodec ID/Hint                            : XviD\nDuration                                 : 1h 28mn\nBit rate                                 : 1 695 Kbps\nWidth                                    : 720 pixels\nHeight                                   : 384 pixels\nDisplay aspect ratio                     : 1.875\nFrame rate                               : 23.976 fps\nColor space                              : YUV\nChroma subsampling                       : 4:2:0\nBit depth                                : 8 bits\nScan type                                : Progressive\nCompression mode                         : Lossy\nBits/(Pixel*Frame)                       : 0.256\nStream size                              : 1.04 GiB (81%)\nWriting library                          : XviD 64\n\nAudio\nID                                       : 1\nFormat                                   : AC-3\nFormat/Info                              : Audio Coding 3\nMode extension                           : CM (complete main)\nCodec ID                                 : 2000\nDuration                                 : 1h 27mn\nBit rate mode                            : Constant\nBit rate                                 : 384 Kbps\nChannel(s)                               : 6 channels\nChannel positions                        : Front: L C R, Side: L R, LFE\nSampling rate                            : 48.0 KHz\nBit depth                                : 16 bits\nCompression mode                         : Lossy\nStream size                              : 241 MiB (18%)\nAlignment                                : Split accross interleaves\nInterleave, duration                     : 42 ms (1.01 video frame)\nInterleave, preload duration             : 500 ms\n\n\n\nscreens\n\n &lt;a href=&quot;\nhttp://i.imgur.com/qFx035s.png&quot; rel=&quot;nofollow&quot; target=&quot;_NEW&quot;&gt;\nhttp://i.imgur.com/qFx035s.png&lt;/a&gt; &lt;a href=&quot;\nhttp://i.imgur.com/WjiBGDC.png&quot; rel=&quot;nofollow&quot; target=&quot;_NEW&quot;&gt;\nhttp://i.imgur.com/WjiBGDC.png&lt;/a&gt; &lt;a href=&quot;\nhttp://i.imgur.com/RmsMLYj.png&quot; rel=&quot;nofollow&quot; target=&quot;_NEW&quot;&gt;\nhttp://i.imgur.com/RmsMLYj.png&lt;/a&gt; &lt;a href=&quot;\nhttp://i.imgur.com/niFIX4M.png&quot; rel=&quot;nofollow&quot; target=&quot;_NEW&quot;&gt;\nhttp://i.imgur.com/niFIX4M.png&lt;/a&gt; &lt;a href=&quot;\nhttp://i.imgur.com/PKigBsA.png&quot; rel=&quot;nofollow&quot; target=&quot;_NEW&quot;&gt;\nhttp://i.imgur.com/PKigBsA.png&lt;/a&gt; &lt;a href=&quot;\nhttp://i.imgur.com/6oCRctf.png&quot; rel=&quot;nofollow&quot; target=&quot;_NEW&quot;&gt;\nhttp://i.imgur.com/6oCRctf.png&lt;/a&gt;","torrent":{"xt":"urn:btih:9cec4cdacc19d7819bb50f43d77b0c51a42b25a3","amp;dn":"A.C.O.D.+Adult+Children+Of+Divorce+2013+WEBrip+Xvid+Ac3-MiLLENiU","amp;tr":["udp%3A%2F%2Ftracker.openbittorrent.com%3A80","udp%3A%2F%2Fopen.demonii.com%3A1337","udp%3A%2F%2Ftracker.coppersurfer.tk%3A6969","udp%3A%2F%2Fexodus.desync.com%3A6969"],"infoHash":"9cec4cdacc19d7819bb50f43d77b0c51a42b25a3","infoHashBuffer":{"type":"Buffer","data":[156,236,76,218,204,25,215,129,155,181,15,67,215,123,12,81,164,43,37,163]},"announce":[],"urlList":[]}}